<svg width="60" height="60" viewBox="0 0 60 60" fill="none" xmlns="http://www.w3.org/2000/svg">
<path d="M15 30C14.5027 30 14.0258 29.8025 13.6742 29.4508C13.3225 29.0992 13.125 28.6223 13.125 28.125V9.375C13.125 8.87772 13.3225 8.40081 13.6742 8.04917C14.0258 7.69754 14.5027 7.5 15 7.5C15.4973 7.5 15.9742 7.69754 16.3258 8.04917C16.6775 8.40081 16.875 8.87772 16.875 9.375V28.125C16.875 28.6223 16.6775 29.0992 16.3258 29.4508C15.9742 29.8025 15.4973 30 15 30ZM45 30C44.5027 30 44.0258 29.8025 43.6742 29.4508C43.3225 29.0992 43.125 28.6223 43.125 28.125V9.375C43.125 8.87772 43.3225 8.40081 43.6742 8.04917C44.0258 7.69754 44.5027 7.5 45 7.5C45.4973 7.5 45.9742 7.69754 46.3258 8.04917C46.6775 8.40081 46.875 8.87772 46.875 9.375V28.125C46.875 28.6223 46.6775 29.0992 46.3258 29.4508C45.9742 29.8025 45.4973 30 45 30ZM16.875 50.625V46.875C16.875 46.3777 16.6775 45.9008 16.3258 45.5492C15.9742 45.1975 15.4973 45 15 45C14.5027 45 14.0258 45.1975 13.6742 45.5492C13.3225 45.9008 13.125 46.3777 13.125 46.875V50.625C13.125 51.1223 13.3225 51.5992 13.6742 51.9508C14.0258 52.3025 14.5027 52.5 15 52.5C15.4973 52.5 15.9742 52.3025 16.3258 51.9508C16.6775 51.5992 16.875 51.1223 16.875 50.625ZM46.875 46.875V50.625C46.875 51.1223 46.6775 51.5992 46.3258 51.9508C45.9742 52.3025 45.4973 52.5 45 52.5C44.5027 52.5 44.0258 52.3025 43.6742 51.9508C43.3225 51.5992 43.125 51.1223 43.125 50.625V46.875C43.125 46.3777 43.3225 45.9008 43.6742 45.5492C44.0258 45.1975 44.5027 45 45 45C45.4973 45 45.9742 45.1975 46.3258 45.5492C46.6775 45.9008 46.875 46.3777 46.875 46.875ZM31.875 13.125V9.375C31.875 8.87772 31.6775 8.40081 31.3258 8.04917C30.9742 7.69754 30.4973 7.5 30 7.5C29.5027 7.5 29.0258 7.69754 28.6742 8.04917C28.3225 8.40081 28.125 8.87772 28.125 9.375V13.125C28.125 13.6223 28.3225 14.0992 28.6742 14.4508C29.0258 14.8025 29.5027 15 30 15C30.4973 15 30.9742 14.8025 31.3258 14.4508C31.6775 14.0992 31.875 13.6223 31.875 13.125ZM30 52.5C29.5027 52.5 29.0258 52.3025 28.6742 51.9508C28.3225 51.5992 28.125 51.1223 28.125 50.625V31.875C28.125 31.3777 28.3225 30.9008 28.6742 30.5492C29.0258 30.1975 29.5027 30 30 30C30.4973 30 30.9742 30.1975 31.3258 30.5492C31.6775 30.9008 31.875 31.3777 31.875 31.875V50.625C31.875 51.1223 31.6775 51.5992 31.3258 51.9508C30.9742 52.3025 30.4973 52.5 30 52.5ZM9.375 37.5C9.375 38.9918 9.96763 40.4226 11.0225 41.4775C12.0774 42.5324 13.5082 43.125 15 43.125C16.4918 43.125 17.9226 42.5324 18.9775 41.4775C20.0324 40.4226 20.625 38.9918 20.625 37.5C20.625 36.0082 20.0324 34.5774 18.9775 33.5225C17.9226 32.4676 16.4918 31.875 15 31.875C13.5082 31.875 12.0774 32.4676 11.0225 33.5225C9.96763 34.5774 9.375 36.0082 9.375 37.5ZM30 28.125C28.5082 28.125 27.0774 27.5324 26.0225 26.4775C24.9676 25.4226 24.375 23.9918 24.375 22.5C24.375 21.0082 24.9676 19.5774 26.0225 18.5225C27.0774 17.4676 28.5082 16.875 30 16.875C31.4918 16.875 32.9226 17.4676 33.9775 18.5225C35.0324 19.5774 35.625 21.0082 35.625 22.5C35.625 23.9918 35.0324 25.4226 33.9775 26.4775C32.9226 27.5324 31.4918 28.125 30 28.125ZM39.375 37.5C39.375 38.9918 39.9676 40.4226 41.0225 41.4775C42.0774 42.5324 43.5082 43.125 45 43.125C46.4918 43.125 47.9226 42.5324 48.9775 41.4775C50.0324 40.4226 50.625 38.9918 50.625 37.5C50.625 36.0082 50.0324 34.5774 48.9775 33.5225C47.9226 32.4676 46.4918 31.875 45 31.875C43.5082 31.875 42.0774 32.4676 41.0225 33.5225C39.9676 34.5774 39.375 36.0082 39.375 37.5Z" fill="white"/>
</svg>
