<svg width="60" height="60" viewBox="0 0 60 60" fill="none" xmlns="http://www.w3.org/2000/svg">
<path d="M15 33.75V9.375M15 33.75C15.9946 33.75 16.9484 34.1451 17.6517 34.8483C18.3549 35.5516 18.75 36.5054 18.75 37.5C18.75 38.4946 18.3549 39.4484 17.6517 40.1516C16.9484 40.8549 15.9946 41.25 15 41.25M15 33.75C14.0054 33.75 13.0516 34.1451 12.3483 34.8483C11.6451 35.5516 11.25 36.5054 11.25 37.5C11.25 38.4946 11.6451 39.4484 12.3483 40.1516C13.0516 40.8549 14.0054 41.25 15 41.25M15 41.25V50.625M45 33.75V9.375M45 33.75C45.9946 33.75 46.9484 34.1451 47.6516 34.8483C48.3549 35.5516 48.75 36.5054 48.75 37.5C48.75 38.4946 48.3549 39.4484 47.6516 40.1516C46.9484 40.8549 45.9946 41.25 45 41.25M45 33.75C44.0054 33.75 43.0516 34.1451 42.3484 34.8483C41.6451 35.5516 41.25 36.5054 41.25 37.5C41.25 38.4946 41.6451 39.4484 42.3484 40.1516C43.0516 40.8549 44.0054 41.25 45 41.25M45 41.25V50.625M30 18.75V9.375M30 18.75C30.9946 18.75 31.9484 19.1451 32.6517 19.8483C33.3549 20.5516 33.75 21.5054 33.75 22.5C33.75 23.4946 33.3549 24.4484 32.6517 25.1517C31.9484 25.8549 30.9946 26.25 30 26.25M30 18.75C29.0054 18.75 28.0516 19.1451 27.3483 19.8483C26.6451 20.5516 26.25 21.5054 26.25 22.5C26.25 23.4946 26.6451 24.4484 27.3483 25.1517C28.0516 25.8549 29.0054 26.25 30 26.25M30 26.25V50.625" stroke="white" stroke-width="3" stroke-linecap="round" stroke-linejoin="round"/>
</svg>
