<svg width="34" height="34" viewBox="0 0 34 34" fill="none" xmlns="http://www.w3.org/2000/svg">
<path fill-rule="evenodd" clip-rule="evenodd" d="M10.625 5.3125C10.0614 5.3125 9.52091 5.53638 9.1224 5.9349C8.72388 6.33341 8.5 6.87391 8.5 7.4375V26.5625C8.5 27.1261 8.72388 27.6666 9.1224 28.0651C9.52091 28.4636 10.0614 28.6875 10.625 28.6875H19.125C19.6886 28.6875 20.2291 28.4636 20.6276 28.0651C21.0261 27.6666 21.25 27.1261 21.25 26.5625V21.25C21.25 20.9682 21.3619 20.698 21.5612 20.4987C21.7605 20.2994 22.0307 20.1875 22.3125 20.1875C22.5943 20.1875 22.8645 20.2994 23.0638 20.4987C23.2631 20.698 23.375 20.9682 23.375 21.25V26.5625C23.375 27.6897 22.9272 28.7707 22.1302 29.5677C21.3332 30.3647 20.2522 30.8125 19.125 30.8125H10.625C9.49783 30.8125 8.41683 30.3647 7.6198 29.5677C6.82277 28.7707 6.375 27.6897 6.375 26.5625V7.4375C6.375 6.31033 6.82277 5.22933 7.6198 4.4323C8.41683 3.63527 9.49783 3.1875 10.625 3.1875H19.125C20.2522 3.1875 21.3332 3.63527 22.1302 4.4323C22.9272 5.22933 23.375 6.31033 23.375 7.4375V12.75C23.375 13.0318 23.2631 13.302 23.0638 13.5013C22.8645 13.7006 22.5943 13.8125 22.3125 13.8125C22.0307 13.8125 21.7605 13.7006 21.5612 13.5013C21.3619 13.302 21.25 13.0318 21.25 12.75V7.4375C21.25 6.87391 21.0261 6.33341 20.6276 5.9349C20.2291 5.53638 19.6886 5.3125 19.125 5.3125H10.625ZM25.8117 11.9992C26.0109 11.8002 26.2809 11.6884 26.5625 11.6884C26.8441 11.6884 27.1141 11.8002 27.3133 11.9992L31.5633 16.2492C31.7623 16.4484 31.8741 16.7184 31.8741 17C31.8741 17.2816 31.7623 17.5516 31.5633 17.7508L27.3133 22.0008C27.2161 22.1052 27.0988 22.189 26.9684 22.247C26.8381 22.3051 26.6974 22.3363 26.5547 22.3388C26.4121 22.3414 26.2704 22.3151 26.1381 22.2617C26.0058 22.2082 25.8856 22.1287 25.7847 22.0278C25.6838 21.9269 25.6043 21.8067 25.5508 21.6744C25.4974 21.5421 25.4711 21.4004 25.4737 21.2578C25.4762 21.1151 25.5074 20.9744 25.5655 20.8441C25.6235 20.7137 25.7073 20.5964 25.8117 20.4992L28.2483 18.0625H12.75C12.4682 18.0625 12.198 17.9506 11.9987 17.7513C11.7994 17.552 11.6875 17.2818 11.6875 17C11.6875 16.7182 11.7994 16.448 11.9987 16.2487C12.198 16.0494 12.4682 15.9375 12.75 15.9375H28.2483L25.8117 13.5008C25.6127 13.3016 25.5009 13.0316 25.5009 12.75C25.5009 12.4684 25.6127 12.1984 25.8117 11.9992Z" fill="#FF0000"/>
</svg>
