<svg width="34" height="34" viewBox="0 0 34 34" fill="none" xmlns="http://www.w3.org/2000/svg">
<path d="M22.6992 13.243H29.7712L25.2648 8.73379C23.814 7.28294 22.0068 6.2396 20.0248 5.70865C18.0429 5.17769 15.9562 5.17785 13.9743 5.70909C11.9925 6.24034 10.1855 7.28395 8.73484 8.73502C7.28423 10.1861 6.24118 11.9935 5.71055 13.9755M4.22871 27.829V20.757M4.22871 20.757H11.3007M4.22871 20.757L8.73371 25.2663C10.1845 26.7171 11.9918 27.7605 13.9737 28.2914C15.9556 28.8224 18.0423 28.8222 20.0242 28.291C22.006 27.7597 23.813 26.7161 25.2637 25.2651C26.7143 23.814 27.7573 22.0066 28.288 20.0246M29.7712 6.17104V13.2402" stroke="white" stroke-width="3" stroke-linecap="round" stroke-linejoin="round"/>
</svg>
