<svg width="60" height="60" viewBox="0 0 60 60" fill="none" xmlns="http://www.w3.org/2000/svg">
<path fill-rule="evenodd" clip-rule="evenodd" d="M13.1251 22.5C13.1251 18.0245 14.903 13.7322 18.0676 10.5676C21.2323 7.4029 25.5245 5.625 30.0001 5.625C34.4756 5.625 38.7678 7.4029 41.9325 10.5676C45.0972 13.7322 46.8751 18.0245 46.8751 22.5V24.375C46.8751 29.6825 48.8751 34.5175 52.1701 38.175C52.3753 38.4025 52.5217 38.6768 52.5964 38.9739C52.6711 39.271 52.6719 39.582 52.5986 39.8795C52.5253 40.177 52.3803 40.452 52.1761 40.6804C51.972 40.9089 51.715 41.0839 51.4276 41.19C47.5676 42.615 43.5276 43.665 39.3501 44.2975C39.4441 45.5829 39.2721 46.8738 38.8449 48.0897C38.4176 49.3056 37.7443 50.4204 36.8668 51.3643C35.9894 52.3083 34.9268 53.0613 33.7453 53.5761C32.5638 54.091 31.2888 54.3567 30.0001 54.3567C28.7113 54.3567 27.4363 54.091 26.2548 53.5761C25.0734 53.0613 24.0107 52.3083 23.1333 51.3643C22.2559 50.4204 21.5825 49.3056 21.1552 48.0897C20.728 46.8738 20.556 45.5829 20.6501 44.2975C16.5292 43.673 12.4825 42.631 8.57255 41.1875C8.28539 41.0815 8.02855 40.9068 7.82446 40.6786C7.62037 40.4505 7.47525 40.1758 7.40176 39.8787C7.32827 39.5815 7.32865 39.2709 7.40288 38.9739C7.4771 38.6769 7.6229 38.4026 7.82755 38.175C11.2446 34.3917 13.1328 29.473 13.1251 24.375V22.5ZM24.3801 44.75C24.3481 45.508 24.4698 46.2646 24.7378 46.9743C25.0058 47.684 25.4146 48.3322 25.9396 48.8799C26.4646 49.4275 27.095 49.8633 27.7928 50.161C28.4906 50.4587 29.2414 50.6121 30.0001 50.6121C30.7587 50.6121 31.5095 50.4587 32.2073 50.161C32.9051 49.8633 33.5355 49.4275 34.0605 48.8799C34.5855 48.3322 34.9943 47.684 35.2623 46.9743C35.5304 46.2646 35.652 45.508 35.6201 44.75C31.881 45.0868 28.1192 45.0868 24.3801 44.75Z" fill="#003057"/>
</svg>
