<svg width="60" height="60" viewBox="0 0 60 60" fill="none" xmlns="http://www.w3.org/2000/svg">
<path d="M37.1425 42.705C41.8005 42.1535 46.3771 41.0542 50.7775 39.43C47.0509 35.302 44.9917 29.9362 45 24.375V22.5C45 18.5218 43.4196 14.7064 40.6066 11.8934C37.7935 9.08035 33.9782 7.5 30 7.5C26.0217 7.5 22.2064 9.08035 19.3934 11.8934C16.5803 14.7064 15 18.5218 15 22.5V24.375C15.0075 29.9366 12.9474 35.3024 9.21997 39.43C13.5525 41.03 18.12 42.1425 22.8575 42.705M37.1425 42.705C32.3974 43.2678 27.6025 43.2678 22.8575 42.705M37.1425 42.705C37.5027 43.8297 37.5923 45.0235 37.4039 46.1893C37.2156 47.3551 36.7545 48.46 36.0584 49.4139C35.3623 50.3679 34.4507 51.144 33.398 51.679C32.3452 52.2141 31.1809 52.4929 30 52.4929C28.819 52.4929 27.6548 52.2141 26.602 51.679C25.5492 51.144 24.6376 50.3679 23.9415 49.4139C23.2454 48.46 22.7844 47.3551 22.596 46.1893C22.4076 45.0235 22.4972 43.8297 22.8575 42.705" stroke="white" stroke-width="3" stroke-linecap="round" stroke-linejoin="round"/>
</svg>
