<svg width="60" height="60" viewBox="0 0 60 60" fill="none" xmlns="http://www.w3.org/2000/svg">
<path d="M14.625 8.74982C14.938 8.37685 15.0936 7.89678 15.0589 7.41113C15.0243 6.92549 14.8021 6.47238 14.4393 6.14762C14.0766 5.82287 13.6018 5.65196 13.1153 5.67103C12.6288 5.6901 12.1687 5.89767 11.8325 6.24982C8.76121 9.67544 6.72562 13.9027 5.96254 18.4398C5.89195 18.925 6.01419 19.4185 6.30305 19.8146C6.59191 20.2107 7.02443 20.4779 7.50793 20.559C7.99143 20.64 8.48745 20.5285 8.88972 20.2483C9.29199 19.9681 9.56851 19.5415 9.66004 19.0598C10.3054 15.2223 12.0272 11.647 14.625 8.74982ZM48.1675 6.24982C48.0038 6.06466 47.8052 5.91368 47.5829 5.80558C47.3607 5.69748 47.1192 5.63438 46.8725 5.61991C46.6258 5.60545 46.3786 5.6399 46.1453 5.72129C45.9119 5.80269 45.697 5.92941 45.5128 6.09418C45.3285 6.25894 45.1787 6.4585 45.0719 6.68137C44.9651 6.90425 44.9034 7.14604 44.8904 7.39284C44.8773 7.63964 44.9132 7.88658 44.996 8.11947C45.0787 8.35235 45.2067 8.56657 45.3725 8.74982C47.9712 11.6468 49.6939 15.2221 50.34 19.0598C50.4223 19.5505 50.696 19.9884 51.1011 20.2772C51.3017 20.4202 51.5284 20.5223 51.7685 20.5776C52.0085 20.633 52.2571 20.6405 52.5 20.5998C52.743 20.5591 52.9755 20.4709 53.1844 20.3404C53.3933 20.2098 53.5744 20.0393 53.7174 19.8388C53.8604 19.6382 53.9625 19.4114 54.0178 19.1714C54.0732 18.9314 54.0807 18.6828 54.04 18.4398C53.2754 13.9022 51.2406 9.67493 48.1675 6.24982Z" fill="#FF0000"/>
<path fill-rule="evenodd" clip-rule="evenodd" d="M30 5.625C25.5245 5.625 21.2323 7.4029 18.0676 10.5676C14.9029 13.7322 13.125 18.0245 13.125 22.5V24.375C13.1327 29.473 11.2446 34.3917 7.82754 38.175C7.62233 38.4026 7.47606 38.6771 7.40152 38.9744C7.32698 39.2717 7.32644 39.5827 7.39996 39.8802C7.47348 40.1777 7.61881 40.4527 7.82323 40.681C8.02765 40.9094 8.28492 41.0841 8.57254 41.19C12.4325 42.615 16.4725 43.665 20.65 44.2975C20.556 45.5829 20.7279 46.8738 21.1552 48.0897C21.5825 49.3056 22.2558 50.4204 23.1333 51.3643C24.0107 52.3083 25.0733 53.0613 26.2548 53.5761C27.4363 54.091 28.7112 54.3567 30 54.3567C31.2888 54.3567 32.5638 54.091 33.7453 53.5761C34.9267 53.0613 35.9894 52.3083 36.8668 51.3643C37.7442 50.4204 38.4176 49.3056 38.8449 48.0897C39.2721 46.8738 39.4441 45.5829 39.35 44.2975C43.4701 43.6729 47.5159 42.6309 51.425 41.1875C51.7122 41.0815 51.969 40.9068 52.1731 40.6786C52.3772 40.4505 52.5223 40.1758 52.5958 39.8787C52.6693 39.5815 52.6689 39.2709 52.5947 38.9739C52.5205 38.6769 52.3747 38.4026 52.17 38.175C48.7539 34.3913 46.8667 29.4726 46.875 24.375V22.5C46.875 18.0245 45.0971 13.7322 41.9325 10.5676C38.7678 7.4029 34.4756 5.625 30 5.625ZM24.375 45C24.375 44.915 24.375 44.8325 24.38 44.75C28.1191 45.0869 31.8809 45.0869 35.62 44.75L35.625 45C35.625 46.4918 35.0324 47.9226 33.9775 48.9775C32.9226 50.0324 31.4919 50.625 30 50.625C28.5082 50.625 27.0775 50.0324 26.0226 48.9775C24.9677 47.9226 24.375 46.4918 24.375 45Z" fill="#FF0000"/>
</svg>
