<svg width="60" height="60" viewBox="0 0 60 60" fill="none" xmlns="http://www.w3.org/2000/svg">
<path d="M37.1426 42.705C41.8006 42.1535 46.3772 41.0542 50.7776 39.43C47.051 35.302 44.9918 29.9362 45.0001 24.375V22.5C45.0001 18.5218 43.4197 14.7064 40.6067 11.8934C37.7936 9.08035 33.9783 7.5 30.0001 7.5C26.0218 7.5 22.2065 9.08035 19.3935 11.8934C16.5804 14.7064 15.0001 18.5218 15.0001 22.5V24.375C15.0076 29.9366 12.9475 35.3024 9.22006 39.43C13.5526 41.03 18.1201 42.1425 22.8576 42.705M37.1426 42.705C32.3975 43.2678 27.6026 43.2678 22.8576 42.705M37.1426 42.705C37.5028 43.8297 37.5924 45.0235 37.404 46.1893C37.2156 47.3551 36.7546 48.46 36.0585 49.4139C35.3624 50.3679 34.4508 51.144 33.398 51.679C32.3453 52.2141 31.181 52.4929 30.0001 52.4929C28.8191 52.4929 27.6549 52.2141 26.6021 51.679C25.5493 51.144 24.6377 50.3679 23.9416 49.4139C23.2455 48.46 22.7845 47.3551 22.5961 46.1893C22.4077 45.0235 22.4973 43.8297 22.8576 42.705M7.81006 18.75C8.51498 14.5624 10.3945 10.6611 13.2301 7.5M46.7701 7.5C49.6056 10.6611 51.4851 14.5624 52.1901 18.75" stroke="#FF0000" stroke-width="3" stroke-linecap="round" stroke-linejoin="round"/>
</svg>
