<svg width="60" height="60" viewBox="0 0 60 60" fill="none" xmlns="http://www.w3.org/2000/svg">
<path d="M23.985 9.85C24.21 8.495 25.385 7.5 26.76 7.5H33.2425C34.6175 7.5 35.7925 8.495 36.0175 9.85L36.55 13.0525C36.7075 13.9875 37.3325 14.7675 38.1625 15.2275C38.3475 15.3275 38.53 15.435 38.7125 15.545C39.525 16.035 40.5125 16.1875 41.4 15.855L44.4425 14.715C45.066 14.4805 45.7525 14.4749 46.3797 14.6993C47.0069 14.9236 47.5342 15.3633 47.8675 15.94L51.1075 21.5575C51.4402 22.1343 51.5574 22.8103 51.4384 23.4654C51.3194 24.1205 50.9718 24.7121 50.4575 25.135L47.95 27.2025C47.2175 27.805 46.855 28.735 46.875 29.6825C46.8785 29.895 46.8785 30.1075 46.875 30.32C46.855 31.265 47.2175 32.195 47.95 32.7975L50.46 34.865C51.52 35.74 51.795 37.2525 51.11 38.44L47.865 44.0575C47.5321 44.6341 47.0055 45.0739 46.3788 45.2987C45.7521 45.5234 45.066 45.5186 44.4425 45.285L41.4 44.145C40.5125 43.8125 39.525 43.965 38.71 44.455C38.5288 44.5653 38.3454 44.6719 38.16 44.775C37.3325 45.2325 36.7075 46.0125 36.55 46.9475L36.0175 50.15C35.7925 51.5075 34.6175 52.5 33.2425 52.5H26.7575C25.3825 52.5 24.21 51.505 23.9825 50.15L23.45 46.9475C23.295 46.0125 22.67 45.2325 21.84 44.7725C21.6546 44.6702 21.4713 44.5644 21.29 44.455C20.4775 43.965 19.49 43.8125 18.6 44.145L15.5575 45.285C14.9343 45.5188 14.2484 45.524 13.6218 45.2997C12.9951 45.0754 12.4683 44.6362 12.135 44.06L8.89253 38.4425C8.55988 37.8657 8.44264 37.1897 8.56167 36.5346C8.68069 35.8795 9.02826 35.2879 9.54253 34.865L12.0525 32.7975C12.7825 32.1975 13.145 31.265 13.1275 30.32C13.1236 30.1075 13.1236 29.895 13.1275 29.6825C13.145 28.7325 12.7825 27.805 12.0525 27.2025L9.54253 25.135C9.02887 24.7122 8.68171 24.1211 8.56271 23.4666C8.4437 22.812 8.56056 22.1365 8.89253 21.56L12.135 15.9425C12.468 15.3653 12.9951 14.9251 13.6223 14.7003C14.2496 14.4755 14.9362 14.4807 15.56 14.715L18.6 15.855C19.49 16.1875 20.4775 16.035 21.29 15.545C21.47 15.435 21.655 15.33 21.84 15.225C22.67 14.7675 23.295 13.9875 23.45 13.0525L23.985 9.85Z" stroke="white" stroke-width="3" stroke-linecap="round" stroke-linejoin="round"/>
<path d="M37.5 30C37.5 31.9891 36.7098 33.8968 35.3033 35.3033C33.8968 36.7098 31.9891 37.5 30 37.5C28.0109 37.5 26.1032 36.7098 24.6967 35.3033C23.2902 33.8968 22.5 31.9891 22.5 30C22.5 28.0109 23.2902 26.1032 24.6967 24.6967C26.1032 23.2902 28.0109 22.5 30 22.5C31.9891 22.5 33.8968 23.2902 35.3033 24.6967C36.7098 26.1032 37.5 28.0109 37.5 30Z" stroke="white" stroke-width="3" stroke-linecap="round" stroke-linejoin="round"/>
</svg>
