<svg width="60" height="60" viewBox="0 0 60 60" fill="none" xmlns="http://www.w3.org/2000/svg">
<path fill-rule="evenodd" clip-rule="evenodd" d="M27.695 5.625C25.4025 5.625 23.4475 7.2825 23.07 9.5425L22.625 12.2225C22.575 12.5225 22.3375 12.8725 21.8825 13.0925C21.0258 13.5043 20.2018 13.9807 19.4175 14.5175C19.0025 14.805 18.5825 14.8325 18.2925 14.725L15.75 13.77C14.7106 13.3806 13.5667 13.3727 12.522 13.7476C11.4773 14.1225 10.5995 14.856 10.045 15.8175L7.73996 19.81C7.18518 20.7709 6.98924 21.8974 7.187 22.9892C7.38476 24.081 7.96339 25.0672 8.81996 25.7725L10.92 27.5025C11.1575 27.6975 11.345 28.075 11.305 28.5775C11.2337 29.5253 11.2337 30.4772 11.305 31.425C11.3425 31.925 11.1575 32.305 10.9225 32.5L8.81996 34.23C7.96339 34.9353 7.38476 35.9215 7.187 37.0133C6.98924 38.1051 7.18518 39.2316 7.73996 40.1925L10.045 44.185C10.5999 45.146 11.4779 45.879 12.5225 46.2535C13.5672 46.6279 14.7108 46.6196 15.75 46.23L18.2975 45.275C18.585 45.1675 19.005 45.1975 19.4225 45.48C20.2025 46.015 21.025 46.4925 21.885 46.905C22.34 47.125 22.5775 47.475 22.6275 47.78L23.0725 50.4575C23.45 52.7175 25.405 54.375 27.6975 54.375H32.3075C34.5975 54.375 36.555 52.7175 36.9325 50.4575L37.3775 47.7775C37.4275 47.4775 37.6625 47.1275 38.12 46.905C38.98 46.4925 39.8025 46.015 40.5825 45.48C41 45.195 41.42 45.1675 41.7075 45.275L44.2575 46.23C45.2962 46.6181 46.4389 46.6253 47.4825 46.2504C48.5261 45.8756 49.4031 45.1428 49.9575 44.1825L52.265 40.19C52.8197 39.2291 53.0157 38.1026 52.8179 37.0108C52.6202 35.919 52.0415 34.9328 51.185 34.2275L49.085 32.4975C48.8475 32.3025 48.66 31.925 48.7 31.4225C48.7711 30.4747 48.7711 29.5228 48.7 28.575C48.66 28.075 48.8475 27.695 49.0825 27.5L51.1825 25.77C52.9525 24.315 53.41 21.795 52.265 19.8075L49.96 15.815C49.405 14.854 48.5271 14.121 47.4824 13.7465C46.4377 13.3721 45.2941 13.3804 44.255 13.77L41.705 14.725C41.42 14.8325 41 14.8025 40.5825 14.5175C39.7989 13.9807 38.9757 13.5044 38.12 13.0925C37.6625 12.875 37.4275 12.525 37.3775 12.2225L36.93 9.5425C36.7476 8.44766 36.1827 7.45304 35.3358 6.73567C34.4889 6.0183 33.4149 5.62472 32.305 5.625H27.6975H27.695ZM30 39.375C32.4864 39.375 34.8709 38.3873 36.6291 36.6291C38.3872 34.871 39.375 32.4864 39.375 30C39.375 27.5136 38.3872 25.129 36.6291 23.3709C34.8709 21.6127 32.4864 20.625 30 20.625C27.5136 20.625 25.129 21.6127 23.3708 23.3709C21.6127 25.129 20.625 27.5136 20.625 30C20.625 32.4864 21.6127 34.871 23.3708 36.6291C25.129 38.3873 27.5136 39.375 30 39.375Z" fill="white"/>
</svg>
