<svg width="65" height="65" viewBox="0 0 65 65" fill="none" xmlns="http://www.w3.org/2000/svg">
<rect width="10.4" height="65" rx="4" fill="#003057"/>
<rect x="54.6" width="10.4" height="65" rx="4" fill="#003057"/>
<path d="M52 36.4004H48.5879C45.0736 31.2802 39.1794 27.9219 32.5 27.9219C25.8206 27.9219 19.9264 31.2802 16.4121 36.4004H13V3.90039H52V36.4004Z" fill="#003057"/>
<circle cx="32.5" cy="46.7999" r="16.9" fill="#003057"/>
<rect x="25" y="8" width="15" height="3" rx="1.5" fill="white"/>
<path d="M32.7783 37C33.5123 37 34.1074 37.5952 34.1074 38.3291V52.4902L39.3828 47.2148C39.9018 46.6962 40.7429 46.6962 41.2617 47.2148C41.7807 47.7338 41.7807 48.5758 41.2617 49.0947L33.96 56.3955C33.9104 56.4717 33.853 56.5445 33.7862 56.6113C33.5214 56.8761 33.1722 57.0054 32.8252 57C32.4785 57.0053 32.1299 56.8768 31.8653 56.6123C31.7975 56.5446 31.7386 56.4708 31.6885 56.3936L24.3887 49.0947C23.8698 48.5758 23.8698 47.7338 24.3887 47.2148C24.9077 46.6959 25.7496 46.6959 26.2686 47.2148L31.4492 52.3955V38.3291C31.4492 37.5952 32.0445 37.0001 32.7783 37Z" fill="white"/>
</svg>
