<svg width="65" height="65" viewBox="0 0 65 65" fill="none" xmlns="http://www.w3.org/2000/svg">
<rect width="10.4" height="65" rx="4" fill="#003057"/>
<rect x="54.6" width="10.4" height="65" rx="4" fill="#003057"/>
<path d="M52 31.2002H48.5869C45.0725 36.3199 39.179 39.6787 32.5 39.6787C25.821 39.6787 19.9275 36.3199 16.4131 31.2002H13V63.7002H52V31.2002Z" fill="#003057"/>
<circle cx="16.9" cy="16.9" r="16.9" transform="matrix(1 0 0 -1 15.6 37.7002)" fill="#003057"/>
<rect width="15" height="3" rx="1.5" transform="matrix(1 0 0 -1 25 46)" fill="white"/>
<path d="M32.8779 31.0361C33.7063 31.0361 34.3779 30.3646 34.3779 29.5361V16.0234L39.1894 20.835C39.7752 21.4207 40.7257 21.4207 41.3115 20.835C41.897 20.2493 41.8968 19.2997 41.3115 18.7139L34.0361 11.4385C33.5882 10.9906 32.9279 10.886 32.3798 11.123C32.018 11.2507 31.7201 11.5117 31.5459 11.8486L24.4384 18.9561C23.8531 19.5418 23.853 20.4915 24.4384 21.0771C25.0242 21.6629 25.9747 21.6629 26.5605 21.0771L31.3779 16.2598V29.5361C31.3779 30.3644 32.0496 31.0359 32.8779 31.0361Z" fill="white"/>
</svg>
