<svg width="60" height="60" viewBox="0 0 60 60" fill="none" xmlns="http://www.w3.org/2000/svg">
<path d="M26.0531 5.20677C27.1549 4.27014 28.5539 3.75586 30 3.75586C31.4461 3.75586 32.8451 4.27014 33.9469 5.20677L52.2281 20.7449C52.901 21.3169 53.4415 22.0284 53.8122 22.83C54.1829 23.6316 54.375 24.5042 54.375 25.3874V49.6874C54.375 50.9306 53.8811 52.1229 53.0021 53.002C52.123 53.881 50.9307 54.3749 49.6875 54.3749H42.1875C40.9443 54.3749 39.752 53.881 38.8729 53.002C37.9939 52.1229 37.5 50.9306 37.5 49.6874V37.4999C37.5 36.5082 37.1072 35.557 36.4076 34.8542C35.708 34.1514 34.7585 33.7544 33.7669 33.7499H26.2312C25.2399 33.7549 24.2909 34.1521 23.5917 34.8548C22.8925 35.5576 22.5 36.5086 22.5 37.4999V49.6874C22.5 50.303 22.3788 50.9125 22.1432 51.4812C21.9076 52.0499 21.5623 52.5667 21.1271 53.002C20.6918 53.4372 20.175 53.7825 19.6063 54.0181C19.0376 54.2536 18.4281 54.3749 17.8125 54.3749H10.3125C9.0693 54.3749 7.87701 53.881 6.99794 53.002C6.11886 52.1229 5.625 50.9306 5.625 49.6874V25.3874C5.62505 24.5042 5.81707 23.6316 6.18777 22.83C6.55847 22.0284 7.09898 21.3169 7.77187 20.7449L26.0531 5.20677Z" fill="white"/>
</svg>
