<svg width="60" height="60" viewBox="0 0 60 60" fill="none" xmlns="http://www.w3.org/2000/svg">
<path d="M26.0531 5.20677C27.1549 4.27014 28.5539 3.75586 30 3.75586C31.4461 3.75586 32.8451 4.27014 33.9469 5.20677L52.2281 20.7449C52.901 21.3169 53.4415 22.0284 53.8122 22.83C54.1829 23.6316 54.375 24.5042 54.375 25.3874V49.6874C54.375 50.9306 53.8811 52.1229 53.0021 53.002C52.123 53.881 50.9307 54.3749 49.6875 54.3749H40.32C39.0768 54.3749 37.8845 53.881 37.0054 53.002C36.1264 52.1229 35.6325 50.9306 35.6325 49.6874V36.5624C35.6325 36.3138 35.5337 36.0753 35.3579 35.8995C35.1821 35.7237 34.9436 35.6249 34.695 35.6249H25.3125C25.0639 35.6249 24.8254 35.7237 24.6496 35.8995C24.4738 36.0753 24.375 36.3138 24.375 36.5624V49.6874C24.375 50.9306 23.8811 52.1229 23.0021 53.002C22.123 53.881 20.9307 54.3749 19.6875 54.3749H10.3125C9.0693 54.3749 7.87701 53.881 6.99794 53.002C6.11886 52.1229 5.625 50.9306 5.625 49.6874V25.3874C5.62505 24.5042 5.81707 23.6316 6.18777 22.83C6.55847 22.0284 7.09898 21.3169 7.77187 20.7449L26.0531 5.20677Z" stroke="white" stroke-width="3" stroke-linecap="round" stroke-linejoin="round"/>
</svg>
