<svg width="60" height="60" viewBox="0 0 60 60" fill="none" xmlns="http://www.w3.org/2000/svg">
<path d="M30 18.75H26.25M30 26.25H26.25M45 33.75H26.25M45 41.25H26.25M18.75 18.75H10.3125C8.76 18.75 7.5 20.01 7.5 21.5625V45C7.5 46.4918 8.09263 47.9226 9.14752 48.9775C10.2024 50.0324 11.6332 50.625 13.125 50.625M18.75 18.75V45C18.75 46.4918 18.1574 47.9226 17.1025 48.9775C16.0476 50.0324 14.6168 50.625 13.125 50.625M18.75 18.75V12.1875C18.75 10.635 20.01 9.375 21.5625 9.375H49.6875C51.24 9.375 52.5 10.635 52.5 12.1875V45C52.5 46.4918 51.9074 47.9226 50.8525 48.9775C49.7976 50.0324 48.3668 50.625 46.875 50.625H13.125M45 18.75H37.5V26.25H45V18.75Z" stroke="white" stroke-width="3" stroke-linecap="round" stroke-linejoin="round"/>
</svg>
