<svg width="60" height="60" viewBox="0 0 60 60" fill="none" xmlns="http://www.w3.org/2000/svg">
<path fill-rule="evenodd" clip-rule="evenodd" d="M49.6875 7.5C52.2775 7.5 54.375 9.6 54.375 12.1875V45C54.375 46.9891 53.5848 48.8968 52.1783 50.3033C50.7718 51.7098 48.8641 52.5 46.875 52.5H9.375C11.3641 52.5 13.2718 51.7098 14.6783 50.3033C16.0848 48.8968 16.875 46.9891 16.875 45V12.1875C16.875 9.5975 18.975 7.5 21.5625 7.5H49.6875ZM30 24.375C30.4973 24.375 30.9742 24.5725 31.3258 24.9242C31.6775 25.2758 31.875 25.7527 31.875 26.25C31.875 26.7473 31.6775 27.2242 31.3258 27.5758C30.9742 27.9275 30.4973 28.125 30 28.125H26.25C25.7527 28.125 25.2758 27.9275 24.9242 27.5758C24.5725 27.2242 24.375 26.7473 24.375 26.25C24.375 25.7527 24.5725 25.2758 24.9242 24.9242C25.2758 24.5725 25.7527 24.375 26.25 24.375H30ZM31.875 18.75C31.875 18.2527 31.6775 17.7758 31.3258 17.4242C30.9742 17.0725 30.4973 16.875 30 16.875H26.25C25.7527 16.875 25.2758 17.0725 24.9242 17.4242C24.5725 17.7758 24.375 18.2527 24.375 18.75C24.375 19.2473 24.5725 19.7242 24.9242 20.0758C25.2758 20.4275 25.7527 20.625 26.25 20.625H30C30.4973 20.625 30.9742 20.4275 31.3258 20.0758C31.6775 19.7242 31.875 19.2473 31.875 18.75ZM45 31.875C45.4973 31.875 45.9742 32.0725 46.3258 32.4242C46.6775 32.7758 46.875 33.2527 46.875 33.75C46.875 34.2473 46.6775 34.7242 46.3258 35.0758C45.9742 35.4275 45.4973 35.625 45 35.625H26.25C25.7527 35.625 25.2758 35.4275 24.9242 35.0758C24.5725 34.7242 24.375 34.2473 24.375 33.75C24.375 33.2527 24.5725 32.7758 24.9242 32.4242C25.2758 32.0725 25.7527 31.875 26.25 31.875H45ZM46.875 41.25C46.875 40.7527 46.6775 40.2758 46.3258 39.9242C45.9742 39.5725 45.4973 39.375 45 39.375H26.25C25.7527 39.375 25.2758 39.5725 24.9242 39.9242C24.5725 40.2758 24.375 40.7527 24.375 41.25C24.375 41.7473 24.5725 42.2242 24.9242 42.5758C25.2758 42.9275 25.7527 43.125 26.25 43.125H45C45.4973 43.125 45.9742 42.9275 46.3258 42.5758C46.6775 42.2242 46.875 41.7473 46.875 41.25ZM45 16.875C45.4973 16.875 45.9742 17.0725 46.3258 17.4242C46.6775 17.7758 46.875 18.2527 46.875 18.75V26.25C46.875 27.285 46.035 28.125 45 28.125H37.5C37.0027 28.125 36.5258 27.9275 36.1742 27.5758C35.8225 27.2242 35.625 26.7473 35.625 26.25V18.75C35.625 18.2527 35.8225 17.7758 36.1742 17.4242C36.5258 17.0725 37.0027 16.875 37.5 16.875H45Z" fill="white"/>
<path d="M13.125 16.875H8.4375C6.885 16.875 5.625 18.135 5.625 19.6875V45C5.625 45.9946 6.02009 46.9484 6.72335 47.6516C7.42661 48.3549 8.38044 48.75 9.375 48.75C10.3696 48.75 11.3234 48.3549 12.0266 47.6516C12.7299 46.9484 13.125 45.9946 13.125 45V16.875Z" fill="white"/>
</svg>
