<svg width="60" height="60" viewBox="0 0 60 60" fill="none" xmlns="http://www.w3.org/2000/svg">
<path d="M45 17.5H15V7.5H45V17.5ZM45 31.25C45.7083 31.25 46.3025 31.01 46.7825 30.53C47.2625 30.05 47.5017 29.4567 47.5 28.75C47.4983 28.0433 47.2583 27.45 46.78 26.97C46.3017 26.49 45.7083 26.25 45 26.25C44.2917 26.25 43.6983 26.49 43.22 26.97C42.7417 27.45 42.5017 28.0433 42.5 28.75C42.4983 29.4567 42.7383 30.0508 43.22 30.5325C43.7017 31.0142 44.295 31.2533 45 31.25ZM40 47.5V37.5H20V47.5H40ZM45 52.5H15V42.5H5V27.5C5 25.375 5.72917 23.5942 7.1875 22.1575C8.64583 20.7208 10.4167 20.0017 12.5 20H47.5C49.625 20 51.4067 20.7192 52.845 22.1575C54.2833 23.5958 55.0017 25.3767 55 27.5V42.5H45V52.5Z" fill="white"/>
</svg>
