<svg width="200" height="200" viewBox="0 0 200 200" fill="none" xmlns="http://www.w3.org/2000/svg">
<path d="M50.3751 41.4332C51.54 42.6106 52.19 44.2023 52.1822 45.8585C52.1743 47.5148 51.5094 49.1002 50.3335 50.2666C43.75 56.7695 38.5211 64.5131 34.9495 73.0497C31.3778 81.5863 29.5341 90.7463 29.5251 99.9999C29.5251 118.642 37.0001 136.525 50.3335 149.725C50.9167 150.303 51.3805 150.99 51.6983 151.747C52.016 152.504 52.1816 153.316 52.1855 154.137C52.1893 154.958 52.0314 155.772 51.7208 156.532C51.4102 157.292 50.9529 157.983 50.3751 158.567C49.7973 159.15 49.1103 159.614 48.3532 159.931C47.5962 160.249 46.7839 160.415 45.9629 160.419C45.1419 160.422 44.3281 160.265 43.5681 159.954C42.8081 159.643 42.1167 159.186 41.5335 158.608C33.7794 150.943 27.6217 141.816 23.4165 131.757C19.2112 121.697 17.0417 110.903 17.0334 99.9999C17.0417 89.0965 19.2112 78.3029 23.4165 68.2432C27.6217 58.1834 33.7794 49.057 41.5335 41.3916C42.7108 40.2267 44.3025 39.5767 45.9587 39.5845C47.615 39.5924 49.2004 40.2573 50.3668 41.4332M146.133 41.4332C147.3 40.2573 148.885 39.5924 150.542 39.5845C152.198 39.5767 153.789 40.2267 154.967 41.3916C162.727 49.0542 168.891 58.1794 173.102 68.2393C177.313 78.2992 179.488 89.0942 179.5 99.9999C179.491 110.904 177.32 121.698 173.113 131.758C168.907 141.817 162.747 150.944 154.992 158.608C154.409 159.186 153.717 159.643 152.957 159.954C152.197 160.265 151.383 160.422 150.562 160.419C149.741 160.415 148.929 160.249 148.172 159.931C147.415 159.614 146.728 159.15 146.15 158.567C145.572 157.983 145.115 157.292 144.804 156.532C144.494 155.772 144.336 154.958 144.34 154.137C144.344 153.316 144.509 152.504 144.827 151.747C145.145 150.99 145.608 150.303 146.192 149.725C152.774 143.223 158.003 135.481 161.574 126.946C165.146 118.411 166.99 109.252 167 99.9999C166.99 90.7477 165.146 81.5892 161.574 73.0542C158.003 64.5191 152.774 56.7768 146.192 50.2749C145.016 49.1086 144.351 47.5231 144.343 45.8669C144.335 44.2106 144.985 42.619 146.15 41.4416M75.7085 64.7332C76.8723 65.9117 77.5207 67.504 77.5113 69.1603C77.502 70.8165 76.8355 72.4013 75.6585 73.5666C72.1543 77.0328 69.3678 81.1559 67.4585 85.6999C64.5905 92.5302 63.8388 100.064 65.3008 107.326C66.7628 114.589 70.371 121.245 75.6585 126.433C76.8046 127.606 77.444 129.182 77.4389 130.821C77.4338 132.461 76.7846 134.033 75.6312 135.198C74.4778 136.364 72.9127 137.029 71.2732 137.051C69.6337 137.074 68.0512 136.45 66.8668 135.317C62.1901 130.692 58.4718 125.189 55.9251 119.125C52.0963 109.997 51.0924 99.93 53.0428 90.2253C54.9933 80.5205 59.8086 71.6235 66.8668 64.6832C68.0453 63.5194 69.6375 62.871 71.2938 62.8804C72.9501 62.8897 74.5349 63.5562 75.7001 64.7332M122.55 64.7332C123.715 63.5562 125.3 62.8897 126.956 62.8804C128.613 62.871 130.205 63.5194 131.383 64.6832C136.06 69.3082 139.778 74.8105 142.325 80.8749C144.862 86.9318 146.169 93.4331 146.169 99.9999C146.169 106.567 144.862 113.068 142.325 119.125C139.778 125.189 136.06 130.692 131.383 135.317C130.193 136.415 128.622 137.008 127.002 136.97C125.383 136.933 123.841 136.268 122.702 135.116C121.563 133.964 120.916 132.415 120.897 130.795C120.878 129.176 121.489 127.612 122.6 126.433C126.108 122.958 128.892 118.833 130.792 114.3C133.661 107.47 134.414 99.9371 132.953 92.6749C131.493 85.4127 127.886 78.756 122.6 73.5666C121.423 72.4013 120.757 70.8165 120.747 69.1603C120.738 67.504 121.386 65.9117 122.55 64.7332ZM81.2501 99.9999C81.2501 95.0271 83.2256 90.258 86.7419 86.7417C90.2582 83.2254 95.0273 81.2499 100 81.2499C104.973 81.2499 109.742 83.2254 113.258 86.7417C116.775 90.258 118.75 95.0271 118.75 99.9999C118.75 104.973 116.775 109.742 113.258 113.258C109.742 116.774 104.973 118.75 100 118.75C95.0273 118.75 90.2582 116.774 86.7419 113.258C83.2256 109.742 81.2501 104.973 81.2501 99.9999Z" fill="#1185E0"/>
</svg>
