<svg width="200" height="200" viewBox="0 0 200 200" fill="none" xmlns="http://www.w3.org/2000/svg">
<path d="M71.2584 130.875C67.1604 126.835 63.9083 122.019 61.6917 116.708C58.3437 108.73 57.4657 99.931 59.1712 91.4484C60.8766 82.9658 65.0871 75.1897 71.2584 69.1252M150.583 45.8335C157.752 52.9168 163.446 61.351 167.335 70.6484C171.225 79.9459 173.232 89.9221 173.242 100C173.231 110.079 171.222 120.055 167.331 129.353C163.441 138.65 157.746 147.084 150.575 154.167M127 69.1252C131.098 73.1653 134.35 77.9812 136.567 83.2918C139.915 91.2702 140.793 100.069 139.087 108.552C137.382 117.035 133.171 124.811 127 130.875M45.9334 154.167C38.7643 147.084 33.0706 138.649 29.1814 129.352C25.2922 120.054 23.2847 110.078 23.275 100C23.275 79.6835 31.425 60.2002 45.9417 45.8335M100 112.5C103.315 112.5 106.495 111.183 108.839 108.839C111.183 106.495 112.5 103.315 112.5 100C112.5 96.685 111.183 93.5055 108.839 91.1613C106.495 88.8171 103.315 87.5002 100 87.5002C96.6848 87.5002 93.5054 88.8171 91.1612 91.1613C88.817 93.5055 87.5 96.685 87.5 100C87.5 103.315 88.817 106.495 91.1612 108.839C93.5054 111.183 96.6848 112.5 100 112.5Z" stroke="#1185E0" stroke-width="10" stroke-linecap="round" stroke-linejoin="round"/>
</svg>
