<svg width="60" height="60" viewBox="0 0 60 60" fill="none" xmlns="http://www.w3.org/2000/svg">
<path d="M37.5 47.82C39.6324 48.4391 41.842 48.7523 44.0625 48.75C47.6335 48.7552 51.1581 47.9409 54.365 46.37C54.4598 44.1293 53.8215 41.9187 52.547 40.0733C51.2724 38.228 49.4309 36.8484 47.3018 36.1438C45.1726 35.4391 42.8717 35.4478 40.7479 36.1685C38.6241 36.8892 36.7931 38.2826 35.5325 40.1375M37.5 47.82V47.8125C37.5 45.03 36.785 42.4125 35.5325 40.1375M37.5 47.82V48.085C32.6887 50.9827 27.1765 52.5095 21.56 52.5C15.7325 52.5 10.28 50.8875 5.625 48.085L5.6225 47.8125C5.62058 44.2737 6.79653 40.8348 8.96496 38.0382C11.1334 35.2415 14.1709 33.2461 17.5987 32.3665C21.0265 31.4869 24.6496 31.7732 27.8967 33.1802C31.1438 34.5873 33.8302 37.035 35.5325 40.1375M30 15.9375C30 18.1753 29.111 20.3214 27.5287 21.9037C25.9464 23.4861 23.8003 24.375 21.5625 24.375C19.3247 24.375 17.1786 23.4861 15.5963 21.9037C14.0139 20.3214 13.125 18.1753 13.125 15.9375C13.125 13.6997 14.0139 11.5536 15.5963 9.97129C17.1786 8.38895 19.3247 7.5 21.5625 7.5C23.8003 7.5 25.9464 8.38895 27.5287 9.97129C29.111 11.5536 30 13.6997 30 15.9375ZM50.625 21.5625C50.625 23.303 49.9336 24.9722 48.7029 26.2029C47.4722 27.4336 45.803 28.125 44.0625 28.125C42.322 28.125 40.6528 27.4336 39.4221 26.2029C38.1914 24.9722 37.5 23.303 37.5 21.5625C37.5 19.822 38.1914 18.1528 39.4221 16.9221C40.6528 15.6914 42.322 15 44.0625 15C45.803 15 47.4722 15.6914 48.7029 16.9221C49.9336 18.1528 50.625 19.822 50.625 21.5625Z" stroke="white" stroke-width="3" stroke-linecap="round" stroke-linejoin="round"/>
</svg>
