<svg width="60" height="60" viewBox="0 0 60 60" fill="none" xmlns="http://www.w3.org/2000/svg">
<path d="M11.25 15.9375C11.25 13.2025 12.3365 10.5794 14.2705 8.64546C16.2044 6.71149 18.8275 5.625 21.5625 5.625C24.2975 5.625 26.9206 6.71149 28.8545 8.64546C30.7885 10.5794 31.875 13.2025 31.875 15.9375C31.875 18.6725 30.7885 21.2956 28.8545 23.2295C26.9206 25.1635 24.2975 26.25 21.5625 26.25C18.8275 26.25 16.2044 25.1635 14.2705 23.2295C12.3365 21.2956 11.25 18.6725 11.25 15.9375ZM35.625 21.5625C35.625 20.4545 35.8432 19.3573 36.2673 18.3336C36.6913 17.3099 37.3128 16.3798 38.0963 15.5963C38.8798 14.8128 39.8099 14.1913 40.8336 13.7673C41.8573 13.3432 42.9545 13.125 44.0625 13.125C45.1705 13.125 46.2677 13.3432 47.2914 13.7673C48.3151 14.1913 49.2452 14.8128 50.0287 15.5963C50.8122 16.3798 51.4337 17.3099 51.8577 18.3336C52.2818 19.3573 52.5 20.4545 52.5 21.5625C52.5 23.8003 51.6111 25.9464 50.0287 27.5287C48.4464 29.1111 46.3003 30 44.0625 30C41.8247 30 39.6786 29.1111 38.0963 27.5287C36.5139 25.9464 35.625 23.8003 35.625 21.5625ZM3.75 47.8125C3.75 43.0883 5.62667 38.5577 8.96716 35.2172C12.3077 31.8767 16.8383 30 21.5625 30C26.2867 30 30.8173 31.8767 34.1578 35.2172C37.4983 38.5577 39.375 43.0883 39.375 47.8125V47.82L39.3725 48.1175C39.3672 48.4354 39.2811 48.7468 39.1224 49.0223C38.9636 49.2978 38.7374 49.5285 38.465 49.6925C33.363 52.7649 27.5182 54.3841 21.5625 54.375C15.3825 54.375 9.5975 52.665 4.6625 49.6925C4.38963 49.5288 4.16292 49.2983 4.00372 49.0227C3.84452 48.7472 3.75806 48.4357 3.7525 48.1175L3.75 47.8125ZM43.125 47.82L43.1225 48.18C43.1085 49.0133 42.9096 49.833 42.54 50.58C46.9043 50.8492 51.2635 49.979 55.19 48.055C55.4937 47.9066 55.7515 47.6788 55.9364 47.3958C56.1212 47.1129 56.2261 46.7852 56.24 46.4475C56.3283 44.3506 55.8735 42.2664 54.9198 40.3969C53.9661 38.5273 52.5458 36.9357 50.7964 35.7763C49.047 34.6168 47.0278 33.9287 44.9344 33.7787C42.841 33.6287 40.7444 34.0218 38.8475 34.92C41.6305 38.6415 43.1306 43.1655 43.1225 47.8125L43.125 47.82Z" fill="white"/>
</svg>
