<svg width="34" height="34" viewBox="0 0 34 34" fill="none" xmlns="http://www.w3.org/2000/svg">
<path d="M7.4375 9.03125C7.4375 7.48139 8.05318 5.99501 9.14909 4.89909C10.245 3.80318 11.7314 3.1875 13.2812 3.1875C14.8311 3.1875 16.3175 3.80318 17.4134 4.89909C18.5093 5.99501 19.125 7.48139 19.125 9.03125C19.125 10.5811 18.5093 12.0675 17.4134 13.1634C16.3175 14.2593 14.8311 14.875 13.2812 14.875C11.7314 14.875 10.245 14.2593 9.14909 13.1634C8.05318 12.0675 7.4375 10.5811 7.4375 9.03125ZM3.1875 27.0937C3.1875 24.4167 4.25095 21.8493 6.14389 19.9564C8.03684 18.0634 10.6042 17 13.2812 17C15.9583 17 18.5257 18.0634 20.4186 19.9564C22.3116 21.8493 23.375 24.4167 23.375 27.0937V27.098L23.3736 27.2666C23.3706 27.4467 23.3218 27.6232 23.2318 27.7793C23.1419 27.9354 23.0137 28.0661 22.8593 28.1591C19.9682 29.9001 16.6561 30.8177 13.2812 30.8125C9.77925 30.8125 6.50108 29.8435 3.70458 28.1591C3.54996 28.0663 3.42149 27.9357 3.33127 27.7796C3.24106 27.6234 3.19207 27.4469 3.18892 27.2666L3.1875 27.0937ZM26.5625 10.625C26.5625 10.3432 26.4506 10.073 26.2513 9.8737C26.052 9.67444 25.7818 9.5625 25.5 9.5625C25.2182 9.5625 24.948 9.67444 24.7487 9.8737C24.5494 10.073 24.4375 10.3432 24.4375 10.625V13.8125H21.25C20.9682 13.8125 20.698 13.9244 20.4987 14.1237C20.2994 14.323 20.1875 14.5932 20.1875 14.875C20.1875 15.1568 20.2994 15.427 20.4987 15.6263C20.698 15.8256 20.9682 15.9375 21.25 15.9375H24.4375V19.125C24.4375 19.4068 24.5494 19.677 24.7487 19.8763C24.948 20.0756 25.2182 20.1875 25.5 20.1875C25.7818 20.1875 26.052 20.0756 26.2513 19.8763C26.4506 19.677 26.5625 19.4068 26.5625 19.125V15.9375H29.75C30.0318 15.9375 30.302 15.8256 30.5013 15.6263C30.7006 15.427 30.8125 15.1568 30.8125 14.875C30.8125 14.5932 30.7006 14.323 30.5013 14.1237C30.302 13.9244 30.0318 13.8125 29.75 13.8125H26.5625V10.625Z" fill="white"/>
</svg>
