<svg width="34" height="34" viewBox="0 0 34 34" fill="none" xmlns="http://www.w3.org/2000/svg">
<path fill-rule="evenodd" clip-rule="evenodd" d="M10.625 8.5C10.625 6.80924 11.2966 5.18774 12.4922 3.99219C13.6877 2.79665 15.3092 2.125 17 2.125C18.6907 2.125 20.3122 2.79665 21.5078 3.99219C22.7033 5.18774 23.375 6.80924 23.375 8.5C23.375 10.1908 22.7033 11.8123 21.5078 13.0078C20.3122 14.2033 18.6907 14.875 17 14.875C15.3092 14.875 13.6877 14.2033 12.4922 13.0078C11.2966 11.8123 10.625 10.1908 10.625 8.5ZM5.31389 28.4821C5.36166 25.4143 6.61388 22.4882 8.80025 20.3357C10.9866 18.1831 13.9318 16.9766 17 16.9766C20.0682 16.9766 23.0133 18.1831 25.1997 20.3357C27.3861 22.4882 28.6383 25.4143 28.6861 28.4821C28.6897 28.6886 28.6331 28.8917 28.5232 29.0666C28.4132 29.2415 28.2547 29.3805 28.067 29.4667C24.595 31.0586 20.8195 31.8802 17 31.875C13.0531 31.875 9.30322 31.0137 5.93297 29.4667C5.74524 29.3805 5.5867 29.2415 5.47675 29.0666C5.3668 28.8917 5.3102 28.6886 5.31389 28.4821Z" fill="#003057"/>
</svg>
