<svg width="60" height="60" viewBox="0 0 60 60" fill="none" xmlns="http://www.w3.org/2000/svg">
<path fill-rule="evenodd" clip-rule="evenodd" d="M30 16.875C29.9995 14.825 30.4792 12.8034 31.4006 10.9721C32.322 9.1409 33.6596 7.55095 35.3062 6.32972C36.9527 5.10849 38.8624 4.28992 40.8823 3.93962C42.9021 3.58932 44.9759 3.71703 46.9375 4.3125C47.2476 4.40643 47.528 4.57908 47.7515 4.81363C47.9749 5.04818 48.1338 5.33662 48.2126 5.65084C48.2914 5.96507 48.2875 6.29435 48.2011 6.60659C48.1148 6.91883 47.9491 7.20338 47.72 7.4325L39.42 15.73C39.5775 16.9175 40.11 18.065 41.0225 18.9775C41.935 19.89 43.0825 20.4225 44.2725 20.5775L52.5675 12.28C52.7967 12.051 53.0812 11.8852 53.3934 11.7989C53.7057 11.7126 54.035 11.7086 54.3492 11.7874C54.6634 11.8663 54.9519 12.0251 55.1864 12.2486C55.421 12.472 55.5936 12.7525 55.6875 13.0625C56.3106 15.1146 56.4213 17.2882 56.0099 19.393C55.5985 21.4978 54.6776 23.4697 53.3278 25.1363C51.978 26.8029 50.2404 28.1133 48.2669 28.9529C46.2935 29.7925 44.1443 30.1357 42.0075 29.9525C39.4625 29.7375 37.3325 30.2025 36.235 31.5375L18.36 53.25C17.6281 54.1344 16.7196 54.8562 15.6926 55.3692C14.6657 55.8823 13.5429 56.1752 12.3962 56.2292C11.2495 56.2832 10.1041 56.0972 9.03347 55.6831C7.9628 55.2689 6.99042 54.6357 6.17859 53.8241C5.36676 53.0124 4.73338 52.0402 4.31898 50.9696C3.90459 49.899 3.71833 48.7537 3.77212 47.607C3.82591 46.4603 4.11857 45.3374 4.63137 44.3104C5.14416 43.2833 5.86579 42.3746 6.75003 41.6425L28.46 23.765C29.7925 22.665 30.26 20.5375 30.045 17.9925C30.0144 17.6208 29.9994 17.248 30 16.875ZM10.2925 47.8125C10.2925 47.3152 10.4901 46.8383 10.8417 46.4867C11.1933 46.135 11.6703 45.9375 12.1675 45.9375H12.1875C12.6848 45.9375 13.1617 46.135 13.5134 46.4867C13.865 46.8383 14.0625 47.3152 14.0625 47.8125V47.8325C14.0625 48.3298 13.865 48.8067 13.5134 49.1583C13.1617 49.51 12.6848 49.7075 12.1875 49.7075H12.1675C11.6703 49.7075 11.1933 49.51 10.8417 49.1583C10.4901 48.8067 10.2925 48.3298 10.2925 47.8325V47.8125Z" fill="white"/>
<path d="M25.1901 21.5999L19.6875 16.0999V12.1849C19.6875 11.8612 19.6037 11.543 19.4442 11.2613C19.2848 10.9796 19.0551 10.744 18.7775 10.5774L9.40255 4.95236C9.04398 4.73742 8.62386 4.64847 8.20895 4.69966C7.79404 4.75084 7.40813 4.93922 7.11255 5.23486L5.23755 7.10986C4.94191 7.40545 4.75353 7.79135 4.70234 8.20626C4.65116 8.62118 4.7401 9.0413 4.95505 9.39986L10.58 18.7749C10.7466 19.0524 10.9823 19.2821 11.264 19.4416C11.5457 19.601 11.8638 19.6848 12.1875 19.6849H16.0975L21.2526 24.8399L25.1901 21.5974V21.5999Z" fill="white"/>
<path fill-rule="evenodd" clip-rule="evenodd" d="M31.39 43.3225L41.8475 53.7775C42.631 54.561 43.5612 55.1825 44.5849 55.6066C45.6085 56.0306 46.7057 56.2488 47.8138 56.2488C48.9218 56.2488 50.019 56.0306 51.0427 55.6066C52.0664 55.1825 52.9965 54.561 53.78 53.7775C54.5635 52.994 55.185 52.0639 55.609 51.0402C56.0331 50.0165 56.2513 48.9193 56.2513 47.8113C56.2513 46.7032 56.0331 45.606 55.609 44.5824C55.185 43.5587 54.5635 42.6285 53.78 41.845L45.515 33.5825C44.2481 33.7621 42.965 33.7982 41.69 33.69C40.705 33.605 39.985 33.675 39.5225 33.795C39.3762 33.826 39.2354 33.8791 39.105 33.9525L31.39 43.3225ZM39.925 39.9225C40.2766 39.5714 40.7531 39.3742 41.25 39.3742C41.7469 39.3742 42.2235 39.5714 42.575 39.9225L47.2625 44.6125C47.4467 44.7842 47.5945 44.9912 47.697 45.2212C47.7994 45.4512 47.8546 45.6995 47.859 45.9512C47.8634 46.203 47.8171 46.453 47.7228 46.6865C47.6285 46.92 47.4882 47.1321 47.3101 47.3101C47.1321 47.4882 46.92 47.6285 46.6865 47.7228C46.453 47.8171 46.203 47.8634 45.9512 47.859C45.6995 47.8546 45.4512 47.7995 45.2212 47.697C44.9912 47.5945 44.7842 47.4467 44.6125 47.2625L39.925 42.575C39.5739 42.2235 39.3767 41.7469 39.3767 41.25C39.3767 40.7531 39.5739 40.2766 39.925 39.925V39.9225Z" fill="white"/>
</svg>
